<svg xmlns="http://www.w3.org/2000/svg" viewBox="0 0 512 512"><path d="M476.962 188.262l34.507-152.82c1.93-8.542-1.505-17.285-8.749-22.273h-.001c-10.153-6.988 10.889-2.387-481.038-3.708C7.004 9.461-2.378 22.583.526 35.442l34.507 152.82a21.234 21.234 0 0 0 6.741 11.345c-4.531 5.105-7.29 11.818-7.29 19.165v250.191c0 18.671 15.189 33.859 33.92 33.859h21.348c4.143 0 7.5-3.357 7.5-7.5a7.5 7.5 0 0 0-7.5-7.5H68.343c-10.398 0-18.858-8.46-18.858-18.92v-250.13c0-7.669 6.238-13.909 13.908-13.909H99.2c1.099 10.682 9.835 17.742 19.36 17.742h274.876c9.54 0 18.29-7.092 19.359-17.742h35.807c7.669 0 13.909 6.239 13.909 13.909v25.355c0 4.143 3.357 7.5 7.5 7.5s7.5-3.357 7.5-7.5v-25.355c0-7.347-2.759-14.059-7.29-19.165a21.224 21.224 0 0 0 6.741-11.345zm-79.097 14.976c-.039 2.559-2.421 4.367-4.859 4.367H118.991c-2.317 0-4.701-1.566-4.861-4.484.027-2.426 2.043-4.386 4.43-4.386 187.495.023 274.976-.044 275.661.079 3.673.668 3.697 4.587 3.644 4.424zm64.466-18.281a6.256 6.256 0 0 1-6.137 4.905h-48.599c-3.487-3.709-8.648-6.129-14.159-6.129H118.56c-5.507 0-10.643 2.39-14.159 6.129H55.803a6.258 6.258 0 0 1-6.137-4.905L15.159 32.138c-.805-3.565 1.581-7.676 6.523-7.676 497.798.399 469.587-.962 472.533 1.064 2.164 1.491 3.193 4.086 2.623 6.612l-34.507 152.819z"/><path d="M430.836 229.835H82.629c-8.783 0-15.93 7.146-15.93 15.93v105.702c0 8.02 6.525 14.547 14.547 14.547 20.895-.002 329.871-.002 347.395-.002 9.185 0 16.658-7.473 16.658-16.658V244.298c-.001-7.976-6.488-14.463-14.463-14.463zm-51.647 14.999h18.054v9.293h-18.054v-9.293zm0 24.294h51.108v8.802h-51.108v-8.802zm1.527 23.803v8.801h-18.054v-8.801h18.054zm-34.581-48.097h18.054v9.293h-18.054v-9.293zm0 24.294h18.054v8.802h-18.054v-8.802zm1.526 23.803v8.801h-18.054v-8.801h18.054zm-34.581-48.097h18.055v9.293H313.08v-9.293zm0 24.294h18.055v8.802H313.08v-8.802zm-16.528 32.605v-8.801h18.055v8.801h-18.055zm1.527 15v8.802h-18.054v-8.802h18.054zm-18.054-71.899h18.054v9.293h-18.054v-9.293zm0 24.294h18.054v8.802h-18.054v-8.802zm1.528 23.803v8.801H263.5v-8.801h18.053zm-51.109 8.802v-8.801h18.054v8.801h-18.054zm1.526 15v8.802h-18.054v-8.802h18.054zm15.001 0h18.054v8.802h-18.054v-8.802zm0-71.899h18.054v9.293h-18.054v-9.293zm0 24.294h18.054v8.802h-18.054v-8.802zm-33.053-24.294h18.054v9.293h-18.054v-9.293zm0 24.294h18.054v8.802h-18.054v-8.802zm1.526 23.803v8.801h-18.055v-8.801h18.055zm-49.583 32.605h-18.053v-8.802h18.052v8.802zm-1.525-23.803v-8.801h18.054v8.801h-18.054zm16.526 15h18.055v8.802h-18.055v-8.802zm0-71.899h18.055v9.293h-18.055v-9.293zm0 24.294h18.055v8.802h-18.055v-8.802zm-33.054-24.294h18.054v9.293h-18.054v-9.293zm0 24.294h18.054v8.802h-18.054v-8.802zm-33.053-24.294h18.054v9.293h-18.054v-9.293zm0 24.294h18.054v8.802h-18.054v-8.802zm-33.056-23.365a.93.93 0 0 1 .929-.929h17.126v9.293H81.699v-8.364zm0 23.365h18.055v8.802H81.699v-8.802zm0 23.803h34.581v8.801H81.699v-8.801zm18.055 58.079H81.699v-10.474h18.055v10.474zm-18.055-25.474v-8.802h51.108v8.802H81.699zm51.109 25.474h-18.054v-10.474h18.054v10.474zm-1.527-49.277v-8.801h18.052v8.801h-18.052zm34.581 49.277h-18.054v-10.474h18.054v10.474zm165.273 0H180.862v-10.474h150.272v10.474zm0-25.474H313.08v-8.802h18.055v8.802zm33.053 25.474h-18.054v-10.474h18.054v10.474zm0-25.474h-18.054v-8.802h18.054v8.802zm33.054 25.474h-18.054v-10.474h18.054v10.474zm31.399 0h-16.398v-10.474h18.055v8.817c0 .914-.743 1.657-1.657 1.657zm1.657-25.474H379.19v-8.802h51.108v8.802zm0-23.803h-34.581v-8.801h34.581v8.801zm0-47.605h-18.055v-9.293h18.055v9.293zM320.675 375.045H191.322c-7.829 0-14.199 6.369-14.199 14.199v56.239c0 7.828 6.369 14.198 14.199 14.198h129.353c7.829 0 14.199-6.369 14.199-14.198v-56.239c0-7.83-6.37-14.199-14.199-14.199zm-.802 69.635H192.124v-54.635h127.749v54.635zm-14.294-282.399h-99.162a7.499 7.499 0 0 0-7.5 7.5c0 4.143 3.357 7.5 7.5 7.5h99.162c4.143 0 7.5-3.357 7.5-7.5a7.498 7.498 0 0 0-7.5-7.5zM467.806 37.043H44.191c-7.711 0-13.414 7.154-11.716 14.659l21.436 94.934a11.947 11.947 0 0 0 11.717 9.366h380.741a11.95 11.95 0 0 0 11.718-9.366l21.437-94.933c1.699-7.521-4.023-14.66-11.718-14.66zm-6.758 28.371H124.755c-4.143 0-7.5 3.357-7.5 7.5s3.357 7.5 7.5 7.5h332.907L443.98 141H68.017L54.336 80.415h35.417c4.143 0 7.5-3.357 7.5-7.5s-3.357-7.5-7.5-7.5H50.949l-3.02-13.371h416.138l-3.019 13.37z"/><path d="M470.012 271.628a7.499 7.499 0 0 0-7.5 7.5v189.834c0 10.398-8.459 18.859-18.92 18.859H313.08v-.974c0-10.753-8.748-19.501-19.501-19.501h-75.161c-10.752 0-19.501 8.748-19.501 19.501v.974h-74.162a7.5 7.5 0 0 0-7.5 7.5c0 4.143 3.357 7.5 7.5 7.5h318.899c18.67 0 33.858-15.189 33.858-33.92V279.129a7.5 7.5 0 0 0-7.5-7.501zM298.079 487.822h-84.161v-.974c0-2.439 2.061-4.5 4.5-4.5h75.161c2.439 0 4.5 2.061 4.5 4.5v.974z"/></svg>