<svg xmlns="http://www.w3.org/2000/svg" viewBox="0 0 512 512"><path d="M235.439 43.973h41.705a8.084 8.084 0 0 0 8.084-8.084 8.083 8.083 0 0 0-8.084-8.084h-41.705a8.084 8.084 0 0 0-8.084 8.084 8.084 8.084 0 0 0 8.084 8.084z"/><path d="M496.713 192.694L468.896 78.087c-.276-1.134-7.042-27.908-33.642-39.213C416 30.692 355.108 7.575 339.862 1.802A8.05 8.05 0 0 0 334.778 0H178.382c-.259 0-.516.014-.774.039-.111.011-.22.03-.33.045a7.722 7.722 0 0 0-.423.065c-.131.025-.26.058-.389.089-.115.028-.231.056-.346.088-.134.039-.264.084-.396.129-.067.024-.135.041-.202.066-3.14 1.187-77.172 29.171-98.776 38.353C51.172 49.744 43.936 74.9 43.171 77.83l-.001.003a5.7 5.7 0 0 1-.036.137l-.029.115-19.768 81.445v.001l-8.05 33.164a8.084 8.084 0 0 0 4.872 9.42l79.47 31.57v270.231a8.083 8.083 0 0 0 8.084 8.084h296.573a8.082 8.082 0 0 0 8.084-8.084V317.128a8.083 8.083 0 0 0-8.084-8.084 8.084 8.084 0 0 0-8.084 8.084v145.838H197.52a8.083 8.083 0 0 0-8.084 8.084 8.083 8.083 0 0 0 8.084 8.084h198.683v16.697H115.799v-16.697h54.774a8.084 8.084 0 0 0 8.084-8.084 8.082 8.082 0 0 0-8.084-8.084h-54.774v-332.08a8.083 8.083 0 0 0-1.166-4.183l-40.77-67.425a39.034 39.034 0 0 1 9.21-5.523c16.551-7.034 66.181-25.968 87.853-34.198 5.199 47.777 42.306 86.201 85.655 86.201 43.22 0 80.24-38.198 85.611-85.779 22.215 8.44 70.465 26.859 86.739 33.775a39.054 39.054 0 0 1 9.21 5.523l-40.769 67.424a8.086 8.086 0 0 0-1.166 4.183V290.18a8.083 8.083 0 0 0 8.084 8.084 8.082 8.082 0 0 0 8.084-8.084v-56.498l79.47-31.57a8.083 8.083 0 0 0 4.869-9.418zM99.631 216.286L32.658 189.68l4.156-17.12 62.816 26.345v17.381zm0-83.147v48.233l-58.954-24.725 18.134-74.711c.023-.091 1.124-4.26 4.094-9.534l36.726 60.737zm156.949-43.55c-31.953 0-66.037-29.165-69.775-73.421h139.552c-3.74 44.257-37.824 73.421-69.777 73.421zm155.792 43.55L449.099 72.4c1.945 3.453 3.09 6.431 3.65 8.091l.005.015c.053.157.099.3.142.432l.024.075c.033.105.063.199.089.286l.031.101c.022.071.04.134.056.19l.023.08.031.112.017.06.015.058 18.143 74.748-58.954 24.725v-48.234zm0 83.147v-17.381l62.816-26.345 4.155 17.121-66.971 26.605z"/></svg>