<svg xmlns="http://www.w3.org/2000/svg" viewBox="0 0 512 512"><path d="M301.326 432.156c-12.779 0-23.177 10.397-23.177 23.178 0 12.779 10.398 23.177 23.177 23.177 12.78 0 23.178-10.397 23.178-23.177s-10.397-23.178-23.178-23.178zm0 31.355c-4.509 0-8.177-3.668-8.177-8.177 0-4.509 3.668-8.178 8.177-8.178 4.509 0 8.178 3.669 8.178 8.178s-3.669 8.177-8.178 8.177zm75.156-8.177c0 12.779 10.397 23.177 23.178 23.177 12.78 0 23.178-10.397 23.178-23.177s-10.397-23.178-23.178-23.178-23.178 10.398-23.178 23.178zm31.355 0c0 4.509-3.669 8.177-8.178 8.177s-8.178-3.668-8.178-8.177c0-4.509 3.669-8.178 8.178-8.178s8.178 3.669 8.178 8.178z"/><path d="M385.039 233.347a7.522 7.522 0 0 0-1.324-.484c-14.555-5.244-30.236-8.11-46.575-8.11h-50.482a4.757 4.757 0 0 1-4.752-4.751V90.815c0-4.143-3.357-7.5-7.5-7.5s-7.5 3.357-7.5 7.5v18.448h-68.547c-10.223 0-18.541 8.317-18.541 18.54v6.583c0 10.223 8.317 18.54 18.541 18.54h68.547v19.448h-68.547c-8.774 0-16.126 6.132-18.04 14.331h-40.392c-14.935 0-27.086 12.15-27.086 27.086v11.37c0 35.096-26.632 64.077-60.746 67.824V107.642c0-7.152 5.819-12.972 12.972-12.972h73.306c11.778 0 21.361-9.583 21.361-21.361V44.342c0-16.179 13.163-29.342 29.342-29.342h48.489c16.179 0 29.342 13.163 29.342 29.342V54.42c0 4.143 3.357 7.5 7.5 7.5s7.5-3.357 7.5-7.5V44.342C281.905 19.892 262.013 0 237.563 0h-48.489c-24.45 0-44.342 19.892-44.342 44.342v28.967a6.368 6.368 0 0 1-6.361 6.361H65.065c-15.424 0-27.972 12.548-27.972 27.972v272.295c0 17.166 12.893 31.368 29.502 33.456-11.419 10.374-18.6 25.335-18.6 41.942 0 31.245 25.421 56.665 56.666 56.665 21.017 0 39.384-11.509 49.166-28.547C163.611 500.491 181.978 512 202.994 512c21.016 0 39.383-11.509 49.166-28.547C261.943 500.491 280.31 512 301.326 512c21.017 0 39.384-11.509 49.167-28.547 9.783 17.038 28.15 28.547 49.166 28.547a56.608 56.608 0 0 0 37.371-14.069 7.5 7.5 0 0 0-9.896-11.272A41.621 41.621 0 0 1 399.659 497c-22.975 0-41.666-18.691-41.666-41.666 0-22.976 18.691-41.667 41.666-41.667 22.975 0 41.666 18.691 41.666 41.667 0 3.707-.485 7.379-1.441 10.915a7.499 7.499 0 0 0 5.28 9.198 7.496 7.496 0 0 0 9.198-5.28 56.772 56.772 0 0 0 1.963-14.833c0-16.464-7.063-31.304-18.311-41.667h3.163c18.599 0 33.73-15.132 33.73-33.73v-17.414c.001-59.131-37.446-109.675-89.868-129.176zm-118.135-95.42h-68.547a3.545 3.545 0 0 1-3.541-3.54v-6.583a3.544 3.544 0 0 1 3.541-3.54h68.547v13.663zm192.769 217.095H311.845c1.282-22.038 8.184-43.27 20.191-61.813a128.036 128.036 0 0 1 50.124-44.908c43.276 17.119 74.571 58.156 77.513 106.721zM194.817 190.915a3.544 3.544 0 0 1 3.541-3.54h68.547v13.663h-68.547a3.545 3.545 0 0 1-3.541-3.54v-6.583zM104.661 497c-22.975 0-41.666-18.691-41.666-41.666 0-22.976 18.691-41.667 41.666-41.667 22.975 0 41.666 18.691 41.666 41.667.001 22.975-18.69 41.666-41.666 41.666zm38.356-83.333h21.622a57.052 57.052 0 0 0-10.811 13.548 57.052 57.052 0 0 0-10.811-13.548zM202.994 497c-22.975 0-41.667-18.691-41.667-41.666 0-22.976 18.691-41.667 41.667-41.667 22.975 0 41.666 18.691 41.666 41.667 0 22.975-18.691 41.666-41.666 41.666zm38.356-83.333h21.621a57.052 57.052 0 0 0-10.811 13.548 57.024 57.024 0 0 0-10.81-13.548zM301.326 497c-22.975 0-41.666-18.691-41.666-41.666 0-22.976 18.691-41.667 41.666-41.667 22.976 0 41.667 18.691 41.667 41.667 0 22.975-18.691 41.666-41.667 41.666zm49.167-69.785a57.052 57.052 0 0 0-10.811-13.548h21.622a57.052 57.052 0 0 0-10.811 13.548zm90.685-28.549H70.824c-10.328 0-18.731-8.402-18.731-18.73v-9.914h22.3c4.142 0 7.5-3.357 7.5-7.5s-3.358-7.5-7.5-7.5h-22.3v-46.97c42.399-3.806 75.746-39.519 75.746-82.891v-11.37c0-6.664 5.422-12.086 12.086-12.086h40.392c1.913 8.199 9.267 14.332 18.04 14.332h68.547v3.964c0 10.891 8.86 19.751 19.752 19.751h50.482c8.631 0 17.056.9 25.188 2.603a143.11 143.11 0 0 0-42.883 42.701c-13.583 20.977-21.321 45.026-22.619 69.966H110.939c-4.142 0-7.5 3.357-7.5 7.5s3.358 7.5 7.5 7.5h348.969v9.914c0 10.328-8.402 18.73-18.73 18.73z"/><path d="M104.661 432.156c-12.78 0-23.177 10.397-23.177 23.178 0 12.779 10.397 23.177 23.177 23.177s23.178-10.397 23.178-23.177-10.397-23.178-23.178-23.178zm0 31.355c-4.509 0-8.177-3.668-8.177-8.177 0-4.509 3.669-8.178 8.177-8.178 4.509 0 8.178 3.669 8.178 8.178s-3.668 8.177-8.178 8.177zm98.333-31.355c-12.78 0-23.178 10.397-23.178 23.178 0 12.779 10.397 23.177 23.178 23.177 12.78 0 23.177-10.397 23.177-23.177.001-12.78-10.397-23.178-23.177-23.178zm0 31.355c-4.509 0-8.178-3.668-8.178-8.177 0-4.509 3.668-8.178 8.178-8.178 4.509 0 8.177 3.669 8.177 8.178.001 4.509-3.668 8.177-8.177 8.177z"/></svg>