<svg xmlns="http://www.w3.org/2000/svg" viewBox="0 0 511.999 511.999"><path d="M396 40c-5.52 0-10 4.48-10 10s4.48 10 10 10 10-4.48 10-10-4.48-10-10-10zM246 452c-5.52 0-10 4.48-10 10s4.48 10 10 10 10-4.48 10-10-4.48-10-10-10z"/><path d="M456 60h-10V30c0-16.542-13.458-30-30-30H76C59.458 0 46 13.458 46 30v30H36c-5.523 0-10 4.478-10 10s4.477 10 10 10h10v33c0 16.542 13.458 30 30 30h340c16.542 0 30-13.458 30-30V80h10c5.514 0 10 4.486 10 10v65.84a9.946 9.946 0 0 1-8.479 9.887l-.227.037-195.979 34.762C246.638 202.842 236 215.285 236 230.16V243h-30c-8.01 0-15.543 3.121-21.211 8.79-5.668 5.668-8.789 13.2-8.789 21.21 0 16.085 12.726 29.251 28.639 29.965L186.55 443.869v.001l-.001.01-.007.056-.001.014a60.922 60.922 0 0 0-.54 8.049c0 33.084 26.916 60 60 60s60-26.916 60-60a60.91 60.91 0 0 0-.539-8.037l-.002-.026-18.097-140.97c7.499-.333 14.504-3.41 19.849-8.756 5.667-5.667 8.788-13.2 8.788-21.21 0-16.542-13.458-30-30-30h-30v-12.84a9.946 9.946 0 0 1 8.479-9.887l.227-.037 195.979-34.762C475.359 183.157 486 170.715 486 155.84V90c0-16.542-13.458-30-30-30zm-30 53c0 5.514-4.486 10-10 10H76c-5.514 0-10-4.486-10-10V30c0-5.514 4.486-10 10-10h340c5.514 0 10 4.486 10 10v83zM246 492c-22.056 0-40-17.944-40-40 0-1.8.125-3.634.37-5.451l.003-.035.005-.031L224.798 303h42.403l18.42 143.483.006.036.003.03c.246 1.817.37 3.651.37 5.451 0 22.056-17.944 40-40 40zm40-229c5.514 0 10 4.486 10 10a9.929 9.929 0 0 1-2.932 7.068A9.934 9.934 0 0 1 286 283h-80c-5.514 0-10-4.486-10-10a9.93 9.93 0 0 1 2.931-7.068A9.93 9.93 0 0 1 206 263h80z"/><path d="M356 40H96c-5.523 0-10 4.478-10 10s4.477 10 10 10h260c5.522 0 10-4.478 10-10s-4.478-10-10-10z"/></svg>