<svg xmlns="http://www.w3.org/2000/svg" viewBox="0 0 152.59 19.83"><defs><style>.cls-2{fill:#fff}.cls-3{fill:#f2d54d}</style></defs><g id="Layer_2" data-name="Layer 2"><g id="Слой_1" data-name="Слой 1"><path d="M30.67 8a2 2 0 0 0-1.41.52 2.37 2.37 0 0 0-.67 1.48h4.17a2.37 2.37 0 0 0-.67-1.44A2 2 0 0 0 30.67 8zm15.01.81a2 2 0 0 0-.92.21 2.31 2.31 0 0 0-.72.6 3.16 3.16 0 0 0-.48.89 3.22 3.22 0 0 0-.18 1.08 2.7 2.7 0 0 0 .68 1.92 2.39 2.39 0 0 0 1.81.72 2.59 2.59 0 0 0 2.13-1.3v-2.25a3.25 3.25 0 0 0-1-1.36 2.18 2.18 0 0 0-1.32-.51zm45.6 3.36a2.29 2.29 0 0 0-1.39.4 1.25 1.25 0 0 0-.55 1 1 1 0 0 0 .42.86 1.66 1.66 0 0 0 1.06.34 2.74 2.74 0 0 0 .84-.14 2.85 2.85 0 0 0 .77-.34 1.91 1.91 0 0 0 .43-.42.76.76 0 0 0 .17-.47v-.9a8.76 8.76 0 0 0-.89-.24 4.66 4.66 0 0 0-.86-.09z" fill="none"/><path class="cls-2" d="M151.75 0h-4.55a10.58 10.58 0 0 0-.75 1l-1.9 4h1.32s.35-.06.43.09L147.72 2h4s.84-.12.84-.58-.81-1.42-.81-1.42zM6.91 8.81a2 2 0 0 1 1.76.93l4.44-1.34a6.24 6.24 0 0 0-2.32-2.47A7.19 7.19 0 0 0 6.94 5a7.73 7.73 0 0 0-3 .54 6.43 6.43 0 0 0-2.15 1.41A6.07 6.07 0 0 0 .46 9a6.94 6.94 0 0 0 0 5 6.11 6.11 0 0 0 1.33 2.09A6.43 6.43 0 0 0 4 17.53a7.73 7.73 0 0 0 3 .54 7.19 7.19 0 0 0 3.85-1 6.24 6.24 0 0 0 2.32-2.47l-4.5-1.31a2 2 0 0 1-1.76.94 2.07 2.07 0 0 1-1.58-.71 2.86 2.86 0 0 1-.65-2 2.89 2.89 0 0 1 .65-2 2.06 2.06 0 0 1 1.58-.71zM20.56 5.7A4.94 4.94 0 0 0 19 7.49V5h-4v13h4v-7.49a2.87 2.87 0 0 1 1.6-1 9.4 9.4 0 0 1 2.4-.25V5.1a3.28 3.28 0 0 0-.52 0 3.35 3.35 0 0 0-1.92.6zM35.89 7a6.34 6.34 0 0 0-2.17-1.4 7.64 7.64 0 0 0-3-.54 7.64 7.64 0 0 0-3 .54A6.27 6.27 0 0 0 25.6 7a5.88 5.88 0 0 0-1.32 2.13 7.48 7.48 0 0 0-.45 2.6 6.63 6.63 0 0 0 .46 2.42 6 6 0 0 0 1.33 2 6.3 6.3 0 0 0 2.17 1.4 7.85 7.85 0 0 0 3 .52 7.47 7.47 0 0 0 3.92-1A6.07 6.07 0 0 0 37 14.73l-3.86-1.11a1.68 1.68 0 0 1-.88.94 3.08 3.08 0 0 1-1.4.34 2.54 2.54 0 0 1-1.46-.45 1.77 1.77 0 0 1-.72-1.45h8.86c0-.19.06-.41.08-.66a6.06 6.06 0 0 0 0-.73 7 7 0 0 0-.45-2.49A5.76 5.76 0 0 0 35.89 7zm-7.3 3a2.37 2.37 0 0 1 .67-1.44 2.19 2.19 0 0 1 2.83 0 2.37 2.37 0 0 1 .67 1.44zM52 12.79V0h-4v6.77a3.73 3.73 0 0 0-1.45-1.56 4 4 0 0 0-2.08-.55 4.31 4.31 0 0 0-2.06.49 4.91 4.91 0 0 0-1.61 1.37 6.45 6.45 0 0 0-1 2.07 8.7 8.7 0 0 0-.38 2.59 8.19 8.19 0 0 0 .42 2.66A6.47 6.47 0 0 0 41 15.92a5 5 0 0 0 3.95 1.84 4.68 4.68 0 0 0 2.17-.53 3.78 3.78 0 0 0 1.61-1.68l.09.46c.22 1.17 1 1.75 2.47 1.75a8.51 8.51 0 0 0 1.71-.24V14a1.33 1.33 0 0 1-.47-.3 7.3 7.3 0 0 0-.53-.91zm-4 .14a2.59 2.59 0 0 1-2.16 1.3 2.39 2.39 0 0 1-1.81-.72 2.7 2.7 0 0 1-.68-1.92 3.22 3.22 0 0 1 .18-1.08 3.16 3.16 0 0 1 .47-.89 2.31 2.31 0 0 1 .72-.6 2 2 0 0 1 .92-.21 2.18 2.18 0 0 1 1.37.51 3.25 3.25 0 0 1 1 1.36zM55.03 0h5v4h-5zm0 5h5v13h-5zM70 13.19a3.47 3.47 0 0 1-.84.11 1.13 1.13 0 0 1-.79-.25 1.11 1.11 0 0 1-.3-.88V8h2V5H68V1h-5v4h-2v3h2v5.78a4 4 0 0 0 .33 1.73 3.12 3.12 0 0 0 .9 1.13 3.6 3.6 0 0 0 1.33.62 6.5 6.5 0 0 0 1.61.19 10.58 10.58 0 0 0 2.35-.27 16.19 16.19 0 0 0 2.26-.69l-.9-3.6a6.07 6.07 0 0 1-.88.3zm8.19-4.38a2 2 0 0 1 1.81.93l4.39-1.34a6.24 6.24 0 0 0-2.32-2.47 7.19 7.19 0 0 0-3.85-1 7.73 7.73 0 0 0-3 .54 6.43 6.43 0 0 0-2.17 1.44A5.93 5.93 0 0 0 71.74 9a6.94 6.94 0 0 0 0 5 6 6 0 0 0 1.33 2.09 6.43 6.43 0 0 0 2.17 1.44 7.73 7.73 0 0 0 3 .54 7.19 7.19 0 0 0 3.85-1 6.24 6.24 0 0 0 2.32-2.47L80 13.29a2 2 0 0 1-1.76.94 2.07 2.07 0 0 1-1.58-.71 2.86 2.86 0 0 1-.65-2 2.89 2.89 0 0 1 .65-2 2.06 2.06 0 0 1 1.53-.71z"/><path class="cls-3" d="M98 12.79V10.6a5.39 5.39 0 0 0-1.79-4.42 7.82 7.82 0 0 0-5.11-1.47 11.26 11.26 0 0 0-6.23 1.75l1.45 3.11a10.4 10.4 0 0 1 2.11-1.12 5.85 5.85 0 0 1 2.18-.38 2.84 2.84 0 0 1 1.83.47A1.8 1.8 0 0 1 93 10v.47a5.43 5.43 0 0 0-2.31-.47 6.73 6.73 0 0 0-2 .29 4.72 4.72 0 0 0-1.57.81 3.9 3.9 0 0 0-1 1.26 3.49 3.49 0 0 0-.44 1.64 3.45 3.45 0 0 0 .32 1.48 3.55 3.55 0 0 0 .85 1.19 4 4 0 0 0 1.29.78 4.48 4.48 0 0 0 1.62.29 4.77 4.77 0 0 0 2.16-.52 5.45 5.45 0 0 0 1.78-1.52l.09.42a1.92 1.92 0 0 0 .76 1.21 3 3 0 0 0 1.71.41 6.76 6.76 0 0 0 .8-.06q.46-.06 1-.17V14a.94.94 0 0 0-.16-.3c-.15-.18.1-.91.1-.91zm-5 .65a.76.76 0 0 1-.17.47 1.91 1.91 0 0 1-.43.42 2.85 2.85 0 0 1-.77.34 2.74 2.74 0 0 1-.84.14 1.66 1.66 0 0 1-1.06-.34 1 1 0 0 1-.42-.86 1.25 1.25 0 0 1 .55-1 2.29 2.29 0 0 1 1.39-.4 4.66 4.66 0 0 1 .86.09 8.76 8.76 0 0 1 .89.24z"/><path class="cls-2" d="M106.56 5.7A4.85 4.85 0 0 0 105 7.49V5h-5v13h5v-7.49a2.89 2.89 0 0 1 1.61-1 9.35 9.35 0 0 1 2.39-.25V5.1a3.8 3.8 0 0 0-2.48.6zM118 13.19a3.41 3.41 0 0 1-.84.11 1.17 1.17 0 0 1-.79-.25 1.15 1.15 0 0 1-.29-.88V8h2V5h-2V1h-5v4h-2v3h2v5.78a4 4 0 0 0 .33 1.73 3.09 3.09 0 0 0 .89 1.13 3.65 3.65 0 0 0 1.34.62 6.41 6.41 0 0 0 1.6.19 10.75 10.75 0 0 0 2.36-.27 16 16 0 0 0 2.25-.69l-.9-3.6a5.41 5.41 0 0 1-.95.3z"/><path class="cls-3" d="M145.53 5h-19a.5.5 0 0 0-.5.5V8h20V5.51a.49.49 0 0 0-.07-.24.51.51 0 0 0-.43-.27zm-1.88 6H126v6.53a.49.49 0 0 0 .51.47H129a2 2 0 0 1 4.07 0h5.51a2 2 0 0 1 4.07 0h2.86a.49.49 0 0 0 .51-.47V11z"/><circle class="cls-2" cx="131.63" cy="17.83" r="2"/><circle class="cls-2" cx="141.05" cy="17.83" r="2"/></g></g></svg>